<svg width="25" height="24" viewBox="0 0 25 24" fill="none" xmlns="http://www.w3.org/2000/svg">
<g opacity="0.7">
<path d="M17.07 22.0001C17.3356 22.0017 17.5989 21.9503 17.8444 21.849C18.0899 21.7477 18.3128 21.5985 18.5 21.4101L21.21 18.7001C21.3963 18.5128 21.5008 18.2593 21.5008 17.9951C21.5008 17.731 21.3963 17.4775 21.21 17.2901L17.21 13.2901C17.0227 13.1039 16.7692 12.9993 16.505 12.9993C16.2408 12.9993 15.9874 13.1039 15.8 13.2901L14.2 14.8801C13.0923 14.5848 12.0663 14.041 11.2 13.2901C10.4512 12.4224 9.90766 11.397 9.61003 10.2901L11.2 8.69014C11.3863 8.50278 11.4908 8.24933 11.4908 7.98514C11.4908 7.72096 11.3863 7.4675 11.2 7.28014L7.20003 3.28014C7.01267 3.09389 6.75922 2.98935 6.49503 2.98935C6.23085 2.98935 5.9774 3.09389 5.79003 3.28014L3.09003 6.00014C2.90167 6.18738 2.75248 6.41027 2.65118 6.65579C2.54988 6.90131 2.4985 7.16455 2.50003 7.43014C2.59076 11.2724 4.12611 14.9394 6.80003 17.7001C9.56075 20.3741 13.2277 21.9094 17.07 22.0001ZM6.50003 5.41014L9.09003 8.00014L7.80003 9.29014C7.67785 9.40459 7.58636 9.54788 7.53395 9.70687C7.48153 9.86586 7.46987 10.0355 7.50003 10.2001C7.8738 11.8705 8.66514 13.4188 9.80003 14.7001C11.0804 15.8365 12.6291 16.628 14.3 17.0001C14.4622 17.034 14.6303 17.0271 14.7891 16.98C14.9479 16.9329 15.0926 16.847 15.21 16.7301L16.5 15.4101L19.09 18.0001L17.09 20.0001C13.7738 19.9148 10.6095 18.5913 8.22003 16.2901C5.91295 13.8997 4.58564 10.7312 4.50003 7.41014L6.50003 5.41014ZM20.5 11.0001H22.5C22.526 9.81114 22.3109 8.6292 21.8678 7.52555C21.4247 6.4219 20.7627 5.41939 19.9217 4.57844C19.0808 3.73749 18.0783 3.07551 16.9746 2.63239C15.871 2.18928 14.689 1.97421 13.5 2.00014V4.00014C14.4279 3.96804 15.3525 4.12715 16.2163 4.46758C17.0801 4.808 17.8647 5.32246 18.5212 5.97898C19.1777 6.6355 19.6922 7.42005 20.0326 8.28385C20.373 9.14765 20.5321 10.0722 20.5 11.0001Z" fill="#606060"/>
<path d="M13.5 8C15.6 8 16.5 8.9 16.5 11H18.5C18.5 7.78 16.72 6 13.5 6V8Z" fill="#606060"/>
</g>
</svg>
