<svg width="21" height="20" viewBox="0 0 21 20" fill="none" xmlns="http://www.w3.org/2000/svg">
<path d="M19.7427 10.3311L10.7427 0.331148C10.3637 -0.0908515 9.63574 -0.0908515 9.25674 0.331148L0.256738 10.3311C0.127429 10.4748 0.042526 10.6529 0.0123019 10.8438C-0.0179222 11.0347 0.00782824 11.2303 0.0864374 11.4068C0.165047 11.5834 0.293145 11.7334 0.455233 11.8387C0.617321 11.944 0.806451 12.0001 0.999738 12.0001H2.99974V19.0001C2.99974 19.2654 3.1051 19.5197 3.29263 19.7073C3.48017 19.8948 3.73452 20.0001 3.99974 20.0001H15.9997C16.265 20.0001 16.5193 19.8948 16.7068 19.7073C16.8944 19.5197 16.9997 19.2654 16.9997 19.0001V12.0001H18.9997C19.1934 12.001 19.3831 11.9454 19.5458 11.8403C19.7084 11.7352 19.837 11.585 19.9157 11.408C19.9945 11.2311 20.0201 11.0351 19.9894 10.8439C19.9586 10.6527 19.873 10.4745 19.7427 10.3311ZM9.99974 14.0001C9.20409 14.0001 8.44103 13.6841 7.87842 13.1215C7.31581 12.5589 6.99974 11.7958 6.99974 11.0001C6.99974 10.2045 7.31581 9.44144 7.87842 8.87883C8.44103 8.31622 9.20409 8.00015 9.99974 8.00015C10.7954 8.00015 11.5584 8.31622 12.1211 8.87883C12.6837 9.44144 12.9997 10.2045 12.9997 11.0001C12.9997 11.7958 12.6837 12.5589 12.1211 13.1215C11.5584 13.6841 10.7954 14.0001 9.99974 14.0001Z" fill="#0673BA"/>
</svg>
