<svg width="24" height="24" viewBox="0 0 24 24" fill="none" xmlns="http://www.w3.org/2000/svg">
<g opacity="0.7">
<path d="M2.99979 13.0002H3.99979V20.0002C3.99979 21.1032 4.89679 22.0002 5.99979 22.0002H17.9998C19.1028 22.0002 19.9998 21.1032 19.9998 20.0002V13.0002H20.9998C21.1975 13.0002 21.3908 12.9415 21.5552 12.8316C21.7197 12.7217 21.8478 12.5656 21.9235 12.3829C21.9991 12.2002 22.0189 11.9991 21.9804 11.8052C21.9418 11.6112 21.8466 11.4331 21.7068 11.2932L12.7068 2.2932C12.614 2.20026 12.5038 2.12652 12.3825 2.07621C12.2612 2.0259 12.1311 2 11.9998 2C11.8685 2 11.7384 2.0259 11.6171 2.07621C11.4958 2.12652 11.3856 2.20026 11.2928 2.2932L2.29279 11.2932C2.15298 11.4331 2.05777 11.6112 2.0192 11.8052C1.98064 11.9991 2.00044 12.2002 2.07611 12.3829C2.15178 12.5656 2.27992 12.7217 2.44433 12.8316C2.60874 12.9415 2.80204 13.0002 2.99979 13.0002ZM11.9998 4.4142L17.9998 10.4142V15.0002L18.0008 20.0002H5.99979V10.4152L11.9998 4.4142Z" fill="#606060"/>
<path d="M12 17C14.206 17 16 15.206 16 13C16 10.794 14.206 9 12 9C9.794 9 8 10.794 8 13C8 15.206 9.794 17 12 17ZM12 11C13.103 11 14 11.897 14 13C14 14.103 13.103 15 12 15C10.897 15 10 14.103 10 13C10 11.897 10.897 11 12 11Z" fill="#606060"/>
</g>
</svg>
