<svg width="24" height="24" viewBox="0 0 24 24" fill="none" xmlns="http://www.w3.org/2000/svg">
<path d="M20.0003 6.95046C20.0789 6.96963 20.1606 6.97299 20.2406 6.96034C20.3205 6.9477 20.3972 6.9193 20.466 6.87679C20.5349 6.83428 20.5947 6.77851 20.6419 6.71273C20.689 6.64694 20.7226 6.57244 20.7408 6.49355C20.7589 6.41466 20.7612 6.33295 20.7475 6.25318C20.7338 6.1734 20.7044 6.09714 20.661 6.02882C20.6176 5.96049 20.561 5.90148 20.4946 5.85519C20.4282 5.8089 20.3533 5.77626 20.2741 5.75917L16.2302 4.8301C16.151 4.80903 16.0683 4.80411 15.9871 4.81566C15.9059 4.8272 15.8279 4.85497 15.7576 4.8973C15.6874 4.93963 15.6264 4.99567 15.5783 5.06207C15.5301 5.12847 15.4958 5.20388 15.4775 5.28381C15.4591 5.36373 15.457 5.44654 15.4713 5.52729C15.4856 5.60805 15.5159 5.6851 15.5606 5.75387C15.6053 5.82264 15.6634 5.8817 15.7314 5.92756C15.7994 5.97341 15.8759 6.00512 15.9564 6.02078L20.0003 6.95046Z" fill="#606060" stroke="#606060" stroke-width="0.5"/>
<path fill-rule="evenodd" clip-rule="evenodd" d="M18.115 10.7797C19.4119 10.7797 20.6557 10.2645 21.5727 9.34747C22.4897 8.43045 23.0049 7.1867 23.0049 5.88983C23.0049 4.59297 22.4897 3.34922 21.5727 2.4322C20.6557 1.51518 19.4119 1 18.115 1C16.8182 1 15.5744 1.51518 14.6574 2.4322C13.7404 3.34922 13.2252 4.59297 13.2252 5.88983C13.2252 7.1867 13.7404 8.43045 14.6574 9.34747C15.5744 10.2645 16.8182 10.7797 18.115 10.7797V10.7797ZM18.115 9.55721C18.5967 9.55721 19.0735 9.46235 19.5185 9.27805C19.9634 9.09374 20.3677 8.82361 20.7083 8.48306C21.0488 8.14251 21.319 7.73822 21.5033 7.29328C21.6876 6.84833 21.7824 6.37144 21.7824 5.88983C21.7824 5.40823 21.6876 4.93134 21.5033 4.48639C21.319 4.04144 21.0488 3.63715 20.7083 3.29661C20.3677 2.95606 19.9634 2.68592 19.5185 2.50162C19.0735 2.31732 18.5967 2.22246 18.115 2.22246C17.1424 2.22246 16.2096 2.60884 15.5218 3.29661C14.8341 3.98437 14.4477 4.91718 14.4477 5.88983C14.4477 6.86248 14.8341 7.79529 15.5218 8.48306C16.2096 9.17083 17.1424 9.55721 18.115 9.55721V9.55721ZM7.58846 2.98344C7.19299 2.04704 5.86907 1.95291 5.33791 2.82269L1.17911 9.6275C0.699293 10.4123 1.23534 11.4147 2.17113 11.4814L9.42398 11.9985C10.3592 12.0657 11.0401 11.1501 10.6831 10.3054L7.58846 2.98344ZM6.38617 3.45286C6.38415 3.45516 6.38231 3.45762 6.38067 3.4602L2.2292 10.254L2.23042 10.2552C2.23235 10.2563 2.2344 10.2571 2.23653 10.2577C2.24365 10.2601 2.25105 10.2615 2.25854 10.262L9.51199 10.7791C9.52422 10.7803 9.53155 10.7791 9.53522 10.7791C9.54191 10.7778 9.54808 10.7746 9.55295 10.7699L6.46257 3.45959L6.46013 3.45347C6.44987 3.44827 6.43861 3.44535 6.42712 3.44492C6.41423 3.44368 6.40123 3.44557 6.38922 3.45042L6.38739 3.45103V3.45164L6.38617 3.45286V3.45286ZM18.9616 19.5569C19.8432 19.1459 20.5255 18.4015 20.8582 17.4874C21.191 16.5734 21.147 15.5646 20.736 14.683C20.5325 14.2464 20.245 13.8543 19.8899 13.5288C19.5348 13.2034 19.1191 12.9511 18.6665 12.7864C17.7525 12.4536 16.7437 12.4976 15.8621 12.9086L9.21433 16.0087C8.77783 16.2123 8.38569 16.4998 8.06031 16.8548C7.73492 17.2099 7.48266 17.6256 7.31792 18.0781C7.15318 18.5307 7.07919 19.0113 7.10018 19.4924C7.12116 19.9736 7.23671 20.4459 7.44023 20.8824C7.64375 21.3189 7.93125 21.711 8.28632 22.0364C8.64139 22.3618 9.05706 22.614 9.50962 22.7788C9.96218 22.9435 10.4428 23.0175 10.9239 22.9965C11.4051 22.9755 11.8774 22.86 12.3139 22.6565L18.9616 19.5563V19.5569ZM9.73082 17.1169C9.43663 17.2505 9.17185 17.4412 8.95179 17.6778C8.73173 17.9144 8.56075 18.1922 8.44874 18.4953C8.33673 18.7984 8.2859 19.1207 8.2992 19.4435C8.3125 19.7664 8.38967 20.0834 8.52623 20.3762C8.66279 20.6691 8.85605 20.9319 9.09483 21.1496C9.33361 21.3673 9.61317 21.5355 9.91735 21.6445C10.2215 21.7535 10.5443 21.8011 10.867 21.7846C11.1897 21.7681 11.5059 21.6878 11.7974 21.5483L14.5271 20.2751L12.4612 15.8437L9.73082 17.1163V17.1169ZM15.6353 19.7586L13.5687 15.3272L16.3785 14.0167C16.6702 13.8756 16.987 13.7939 17.3106 13.7763C17.6341 13.7588 17.9579 13.8057 18.2632 13.9143C18.5684 14.023 18.849 14.1913 19.0887 14.4093C19.3283 14.6274 19.5222 14.8909 19.6592 15.1846C19.7961 15.4782 19.8732 15.7962 19.8862 16.12C19.8991 16.4437 19.8476 16.7668 19.7346 17.0705C19.6216 17.3741 19.4493 17.6523 19.2278 17.8888C19.0064 18.1253 18.7401 18.3155 18.4445 18.4481L15.6353 19.7586V19.7586Z" fill="#606060" stroke="#606060" stroke-width="0.5"/>
</svg>
