<svg width="23" height="22" viewBox="0 0 23 22" fill="none" xmlns="http://www.w3.org/2000/svg">
<path fill-rule="evenodd" clip-rule="evenodd" d="M22.0053 4.88983C22.0053 6.1867 21.4901 7.43045 20.5731 8.34747C19.656 9.26449 18.4123 9.77967 17.1154 9.77967C15.8186 9.77967 14.5748 9.26449 13.6578 8.34747C12.7408 7.43045 12.2256 6.1867 12.2256 4.88983C12.2256 3.59297 12.7408 2.34922 13.6578 1.4322C14.5748 0.515177 15.8186 0 17.1154 0C18.4123 0 19.656 0.515177 20.5731 1.4322C21.4901 2.34922 22.0053 3.59297 22.0053 4.88983ZM19.7327 5.49189C19.6963 5.64974 19.5987 5.78668 19.4614 5.87264C19.3241 5.95859 19.1583 5.98653 19.0004 5.95032L14.9566 5.02125C14.7985 4.98494 14.6613 4.88732 14.5753 4.74988C14.4892 4.61245 14.4612 4.44644 14.4975 4.28838C14.5338 4.13033 14.6314 3.99317 14.7689 3.90709C14.9063 3.821 15.0723 3.79304 15.2304 3.82935L19.2743 4.75903C19.3525 4.77705 19.4264 4.8103 19.4918 4.85688C19.5572 4.90346 19.6127 4.96246 19.6553 5.03052C19.6978 5.09857 19.7266 5.17434 19.7399 5.2535C19.7532 5.33267 19.7507 5.41367 19.7327 5.49189Z" fill="#0673BA"/>
<path d="M6.58846 1.98323C6.19299 1.04683 4.86907 0.952697 4.33791 1.82248L0.179108 8.62729C-0.300707 9.41211 0.235341 10.4145 1.17113 10.4811L8.42398 10.9982C9.35916 11.0655 10.0401 10.1499 9.68311 9.30514L6.58846 1.98323Z" fill="#0673BA"/>
<path fill-rule="evenodd" clip-rule="evenodd" d="M17.9616 18.5568C18.8432 18.1458 19.5254 17.4014 19.8582 16.4873C20.191 15.5733 20.147 14.5645 19.736 13.6829C19.5325 13.2463 19.245 12.8541 18.8899 12.5287C18.5348 12.2033 18.1191 11.951 17.6665 11.7862C16.7525 11.4535 15.7437 11.4974 14.862 11.9085L8.21431 15.0086C7.77782 15.2121 7.38568 15.4996 7.0603 15.8547C6.73491 16.2098 6.48264 16.6254 6.31791 17.078C6.15317 17.5306 6.07918 18.0111 6.10016 18.4923C6.12115 18.9734 6.2367 19.4457 6.44022 19.8822C6.64374 20.3187 6.93124 20.7109 7.28631 21.0363C7.64137 21.3617 8.05705 21.6139 8.50961 21.7787C8.96217 21.9434 9.44275 22.0174 9.9239 21.9964C10.4051 21.9754 10.8774 21.8599 11.3139 21.6563L17.9616 18.5562V18.5568ZM14.6353 18.7585L17.4451 17.4486C18.0262 17.1706 18.4741 16.6744 18.6914 16.0679C18.9087 15.4615 18.8779 14.7937 18.6056 14.2099C18.3333 13.626 17.8416 13.1732 17.2373 12.9499C16.6331 12.7266 15.9651 12.7508 15.3785 13.0172L12.5687 14.3271L14.6347 18.7585H14.6353Z" fill="#0673BA"/>
</svg>
