<svg width="24" height="24" viewBox="0 0 24 24" fill="none" xmlns="http://www.w3.org/2000/svg">
<path fill-rule="evenodd" clip-rule="evenodd" d="M23.0053 5.88983C23.0053 7.1867 22.4901 8.43045 21.5731 9.34747C20.656 10.2645 19.4123 10.7797 18.1154 10.7797C16.8186 10.7797 15.5748 10.2645 14.6578 9.34747C13.7408 8.43045 13.2256 7.1867 13.2256 5.88983C13.2256 4.59297 13.7408 3.34922 14.6578 2.4322C15.5748 1.51518 16.8186 1 18.1154 1C19.4123 1 20.656 1.51518 21.5731 2.4322C22.4901 3.34922 23.0053 4.59297 23.0053 5.88983V5.88983ZM20.7327 6.49189C20.6963 6.64974 20.5987 6.78668 20.4614 6.87264C20.3241 6.95859 20.1583 6.98653 20.0004 6.95032L15.9566 6.02125C15.7985 5.98494 15.6613 5.88732 15.5753 5.74988C15.4892 5.61245 15.4612 5.44644 15.4975 5.28838C15.5338 5.13033 15.6314 4.99317 15.7689 4.90709C15.9063 4.821 16.0723 4.79304 16.2304 4.82935L20.2743 5.75903C20.3525 5.77705 20.4264 5.8103 20.4918 5.85688C20.5572 5.90346 20.6127 5.96246 20.6553 6.03052C20.6978 6.09857 20.7266 6.17434 20.7399 6.2535C20.7532 6.33267 20.7507 6.41367 20.7327 6.49189V6.49189Z" fill="#0673BA"/>
<path d="M7.58846 2.98323C7.19299 2.04683 5.86907 1.9527 5.33791 2.82248L1.17911 9.62729C0.699293 10.4121 1.23534 11.4145 2.17113 11.4811L9.42398 11.9982C10.3592 12.0655 11.0401 11.1499 10.6831 10.3051L7.58846 2.98323Z" fill="#0673BA"/>
<path fill-rule="evenodd" clip-rule="evenodd" d="M18.9616 19.5568C19.8432 19.1458 20.5254 18.4014 20.8582 17.4873C21.191 16.5733 21.147 15.5645 20.736 14.6829C20.5325 14.2463 20.245 13.8541 19.8899 13.5287C19.5348 13.2033 19.1191 12.951 18.6665 12.7862C17.7525 12.4535 16.7437 12.4974 15.862 12.9085L9.21431 16.0086C8.77782 16.2121 8.38568 16.4996 8.0603 16.8547C7.73491 17.2098 7.48264 17.6254 7.31791 18.078C7.15317 18.5306 7.07918 19.0111 7.10016 19.4923C7.12115 19.9734 7.2367 20.4457 7.44022 20.8822C7.64374 21.3187 7.93124 21.7109 8.28631 22.0363C8.64137 22.3617 9.05705 22.6139 9.50961 22.7787C9.96217 22.9434 10.4427 23.0174 10.9239 22.9964C11.4051 22.9754 11.8774 22.8599 12.3139 22.6563L18.9616 19.5562V19.5568ZM15.6353 19.7585L18.4451 18.4486C19.0262 18.1706 19.4741 17.6744 19.6914 17.0679C19.9087 16.4615 19.8779 15.7937 19.6056 15.2099C19.3333 14.626 18.8416 14.1732 18.2373 13.9499C17.6331 13.7266 16.9651 13.7508 16.3785 14.0172L13.5687 15.3271L15.6347 19.7585H15.6353Z" fill="#0673BA"/>
</svg>
