<svg width="25" height="24" viewBox="0 0 25 24" fill="none" xmlns="http://www.w3.org/2000/svg">
<g opacity="0.7">
<path d="M12.5 2C6.986 2 2.5 6.486 2.5 12C2.5 17.514 6.986 22 12.5 22C18.014 22 22.5 17.514 22.5 12C22.5 6.486 18.014 2 12.5 2ZM20.431 11H13.5V4.069C15.2598 4.29335 16.8953 5.09574 18.1498 6.3502C19.4043 7.60466 20.2066 9.24017 20.431 11V11ZM4.5 12C4.5 7.928 7.561 4.564 11.5 4.069V12C11.503 12.1526 11.5409 12.3024 11.611 12.438C11.626 12.468 11.633 12.501 11.652 12.531L15.854 19.254C14.8038 19.7442 13.659 19.9988 12.5 20C8.089 20 4.5 16.411 4.5 12ZM17.552 18.196L14.305 13H20.431C20.1746 15.0376 19.1436 16.8982 17.552 18.196V18.196Z" fill="#606060"/>
</g>
</svg>
