<svg width="192" height="24" viewBox="0 0 192 24" fill="none" xmlns="http://www.w3.org/2000/svg">
<path d="M2.10074 13.4142L4.92916 16.2426H2.10074V13.4142Z" fill="#FFA34F"/>
<path d="M4.92935 16.2425L7.75778 19.071H4.92935V16.2425Z" fill="#FFA34F"/>
<path d="M7.75748 19.071L10.5859 21.8994H7.75748V19.071Z" fill="#FFA34F"/>
<path d="M20.4857 9.17154L17.6573 6.34311L20.4857 6.34311L20.4857 9.17154Z" fill="#FFA34F"/>
<path d="M17.6571 6.34305L14.8286 3.51462L17.6571 3.51462L17.6571 6.34305Z" fill="#FFA34F"/>
<path d="M14.8285 3.51468L13.4142 2.10046L14.8285 0.68625L14.8285 3.51468Z" fill="#FFA34F"/>
<path d="M20.4857 9.17154L21.8999 10.5858L23.3141 9.17154L20.4857 9.17154Z" fill="#FFA34F"/>
<path fill-rule="evenodd" clip-rule="evenodd" d="M11.293 4.2218L2.10059 13.4142L10.5859 21.8995L19.7783 12.7071L19.0711 12L19.7783 11.2929L20.4854 12L21.8996 10.5858L13.4143 2.10048L12.0001 3.51469L12.7072 4.2218L12.0001 4.9289L11.293 4.2218ZM13.4143 6.34312L14.8285 7.75733L15.5356 7.05022L14.1214 5.63601L13.4143 6.34312ZM16.2427 9.17154L17.6569 10.5858L18.364 9.87865L16.9498 8.46444L16.2427 9.17154Z" fill="#FFA34F"/>
<path d="M26.1007 13.4142L28.9292 16.2426H26.1007V13.4142Z" fill="#FFA34F"/>
<path d="M28.9294 16.2425L31.7578 19.071H28.9294V16.2425Z" fill="#FFA34F"/>
<path d="M31.7575 19.071L34.5859 21.8994H31.7575V19.071Z" fill="#FFA34F"/>
<path d="M44.4857 9.17154L41.6573 6.34311L44.4857 6.34311L44.4857 9.17154Z" fill="#FFA34F"/>
<path d="M41.6571 6.34305L38.8286 3.51462L41.6571 3.51462L41.6571 6.34305Z" fill="#FFA34F"/>
<path d="M38.8285 3.51468L37.4142 2.10046L38.8285 0.68625L38.8285 3.51468Z" fill="#FFA34F"/>
<path d="M44.4857 9.17154L45.8999 10.5858L47.3141 9.17154L44.4857 9.17154Z" fill="#FFA34F"/>
<path fill-rule="evenodd" clip-rule="evenodd" d="M35.293 4.2218L26.1006 13.4142L34.5859 21.8995L43.7783 12.7071L43.0711 12L43.7783 11.2929L44.4854 12L45.8996 10.5858L37.4143 2.10048L36.0001 3.51469L36.7072 4.2218L36.0001 4.9289L35.293 4.2218ZM37.4143 6.34312L38.8285 7.75733L39.5356 7.05022L38.1214 5.63601L37.4143 6.34312ZM40.2427 9.17154L41.6569 10.5858L42.364 9.87865L40.9498 8.46444L40.2427 9.17154Z" fill="#FFA34F"/>
<path d="M50.1007 13.4142L52.9292 16.2426H50.1007V13.4142Z" fill="#FFA34F"/>
<path d="M52.9294 16.2425L55.7578 19.071H52.9294V16.2425Z" fill="#FFA34F"/>
<path d="M55.7575 19.071L58.5859 21.8994H55.7575V19.071Z" fill="#FFA34F"/>
<path d="M68.4857 9.17154L65.6573 6.34311L68.4857 6.34311L68.4857 9.17154Z" fill="#FFA34F"/>
<path d="M65.6571 6.34305L62.8286 3.51462L65.6571 3.51462L65.6571 6.34305Z" fill="#FFA34F"/>
<path d="M62.8285 3.51468L61.4142 2.10046L62.8285 0.68625L62.8285 3.51468Z" fill="#FFA34F"/>
<path d="M68.4857 9.17154L69.8999 10.5858L71.3141 9.17154L68.4857 9.17154Z" fill="#FFA34F"/>
<path fill-rule="evenodd" clip-rule="evenodd" d="M59.293 4.2218L50.1006 13.4142L58.5859 21.8995L67.7783 12.7071L67.0711 12L67.7783 11.2929L68.4854 12L69.8996 10.5858L61.4143 2.10048L60.0001 3.51469L60.7072 4.2218L60.0001 4.9289L59.293 4.2218ZM61.4143 6.34312L62.8285 7.75733L63.5356 7.05022L62.1214 5.63601L61.4143 6.34312ZM64.2427 9.17154L65.6569 10.5858L66.364 9.87865L64.9498 8.46444L64.2427 9.17154Z" fill="#FFA34F"/>
<path d="M74.1007 13.4142L76.9292 16.2426H74.1007V13.4142Z" fill="#FFA34F"/>
<path d="M76.9294 16.2425L79.7578 19.071H76.9294V16.2425Z" fill="#FFA34F"/>
<path d="M79.7575 19.071L82.5859 21.8994H79.7575V19.071Z" fill="#FFA34F"/>
<path d="M92.4857 9.17154L89.6573 6.34311L92.4857 6.34311L92.4857 9.17154Z" fill="#FFA34F"/>
<path d="M89.6571 6.34305L86.8286 3.51462L89.6571 3.51462L89.6571 6.34305Z" fill="#FFA34F"/>
<path d="M86.8285 3.51468L85.4142 2.10046L86.8285 0.68625L86.8285 3.51468Z" fill="#FFA34F"/>
<path d="M92.4857 9.17154L93.8999 10.5858L95.3141 9.17154L92.4857 9.17154Z" fill="#FFA34F"/>
<path fill-rule="evenodd" clip-rule="evenodd" d="M83.293 4.2218L74.1006 13.4142L82.5859 21.8995L91.7783 12.7071L91.0711 12L91.7783 11.2929L92.4854 12L93.8996 10.5858L85.4143 2.10048L84.0001 3.51469L84.7072 4.2218L84.0001 4.9289L83.293 4.2218ZM85.4143 6.34312L86.8285 7.75733L87.5356 7.05022L86.1214 5.63601L85.4143 6.34312ZM88.2427 9.17154L89.6569 10.5858L90.364 9.87865L88.9498 8.46444L88.2427 9.17154Z" fill="#FFA34F"/>
<path d="M98.1007 13.4142L100.929 16.2426H98.1007V13.4142Z" fill="#FFA34F"/>
<path d="M100.929 16.2425L103.758 19.071H100.929V16.2425Z" fill="#FFA34F"/>
<path d="M103.757 19.071L106.586 21.8994H103.757V19.071Z" fill="#FFA34F"/>
<path d="M116.486 9.17154L113.657 6.34311L116.486 6.34311L116.486 9.17154Z" fill="#FFA34F"/>
<path d="M113.657 6.34305L110.829 3.51462L113.657 3.51462L113.657 6.34305Z" fill="#FFA34F"/>
<path d="M110.828 3.51468L109.414 2.10046L110.828 0.68625L110.828 3.51468Z" fill="#FFA34F"/>
<path d="M116.486 9.17154L117.9 10.5858L119.314 9.17154L116.486 9.17154Z" fill="#FFA34F"/>
<path fill-rule="evenodd" clip-rule="evenodd" d="M107.293 4.2218L98.1006 13.4142L106.586 21.8995L115.778 12.7071L115.071 12L115.778 11.2929L116.485 12L117.9 10.5858L109.414 2.10048L108 3.51469L108.707 4.2218L108 4.9289L107.293 4.2218ZM109.414 6.34312L110.829 7.75733L111.536 7.05022L110.121 5.63601L109.414 6.34312ZM112.243 9.17154L113.657 10.5858L114.364 9.87865L112.95 8.46444L112.243 9.17154Z" fill="#FFA34F"/>
<path d="M122.101 13.4142L124.929 16.2426H122.101V13.4142Z" fill="#FFA34F"/>
<path d="M124.929 16.2425L127.758 19.071H124.929V16.2425Z" fill="#FFA34F"/>
<path d="M127.757 19.071L130.586 21.8994H127.757V19.071Z" fill="#FFA34F"/>
<path d="M140.486 9.17154L137.657 6.34311L140.486 6.34311L140.486 9.17154Z" fill="#FFA34F"/>
<path d="M137.657 6.34305L134.829 3.51462L137.657 3.51462L137.657 6.34305Z" fill="#FFA34F"/>
<path d="M134.828 3.51468L133.414 2.10046L134.828 0.68625L134.828 3.51468Z" fill="#FFA34F"/>
<path d="M140.486 9.17154L141.9 10.5858L143.314 9.17154L140.486 9.17154Z" fill="#FFA34F"/>
<path fill-rule="evenodd" clip-rule="evenodd" d="M131.293 4.2218L122.101 13.4142L130.586 21.8995L139.778 12.7071L139.071 12L139.778 11.2929L140.485 12L141.9 10.5858L133.414 2.10048L132 3.51469L132.707 4.2218L132 4.9289L131.293 4.2218ZM133.414 6.34312L134.829 7.75733L135.536 7.05022L134.121 5.63601L133.414 6.34312ZM136.243 9.17154L137.657 10.5858L138.364 9.87865L136.95 8.46444L136.243 9.17154Z" fill="#FFA34F"/>
<path d="M146.101 13.4142L148.929 16.2426H146.101V13.4142Z" fill="#ACACAC"/>
<path d="M148.929 16.2425L151.758 19.071H148.929V16.2425Z" fill="#ACACAC"/>
<path d="M151.757 19.071L154.586 21.8994H151.757V19.071Z" fill="#ACACAC"/>
<path d="M164.486 9.17154L161.657 6.34311L164.486 6.34311L164.486 9.17154Z" fill="#ACACAC"/>
<path d="M161.657 6.34305L158.829 3.51462L161.657 3.51462L161.657 6.34305Z" fill="#ACACAC"/>
<path d="M158.828 3.51468L157.414 2.10046L158.828 0.68625L158.828 3.51468Z" fill="#ACACAC"/>
<path d="M164.486 9.17154L165.9 10.5858L167.314 9.17154L164.486 9.17154Z" fill="#ACACAC"/>
<path fill-rule="evenodd" clip-rule="evenodd" d="M155.293 4.2218L146.101 13.4142L154.586 21.8995L163.778 12.7071L163.071 12L163.778 11.2929L164.485 12L165.9 10.5858L157.414 2.10048L156 3.51469L156.707 4.2218L156 4.9289L155.293 4.2218ZM157.414 6.34312L158.829 7.75733L159.536 7.05022L158.121 5.63601L157.414 6.34312ZM160.243 9.17154L161.657 10.5858L162.364 9.87865L160.95 8.46444L160.243 9.17154Z" fill="#ACACAC"/>
<mask id="mask0_1527_28035" style="mask-type:alpha" maskUnits="userSpaceOnUse" x="146" y="0" width="11" height="23">
<rect x="146" width="11" height="23" fill="#C4C4C4"/>
</mask>
<g mask="url(#mask0_1527_28035)">
<path d="M146.101 13.4142L148.929 16.2426H146.101V13.4142Z" fill="#FFA34F"/>
<path d="M148.929 16.2425L151.758 19.071H148.929V16.2425Z" fill="#FFA34F"/>
<path d="M151.757 19.071L154.586 21.8994H151.757V19.071Z" fill="#FFA34F"/>
<path fill-rule="evenodd" clip-rule="evenodd" d="M155.293 4.2218L146.101 13.4142L154.586 21.8995L163.778 12.7071L163.071 12L163.778 11.2929L164.485 12L165.9 10.5858L157.414 2.10048L156 3.51469L156.707 4.2218L156 4.9289L155.293 4.2218ZM157.414 6.34312L158.829 7.75733L159.536 7.05022L158.121 5.63601L157.414 6.34312ZM160.243 9.17154L161.657 10.5858L162.364 9.87865L160.95 8.46444L160.243 9.17154Z" fill="#FFA34F"/>
</g>
<path d="M170.101 13.4142L172.929 16.2426H170.101V13.4142Z" fill="#ACACAC"/>
<path d="M172.929 16.2425L175.758 19.071H172.929V16.2425Z" fill="#ACACAC"/>
<path d="M175.757 19.071L178.586 21.8994H175.757V19.071Z" fill="#ACACAC"/>
<path d="M188.486 9.17154L185.657 6.34311L188.486 6.34311L188.486 9.17154Z" fill="#ACACAC"/>
<path d="M185.657 6.34305L182.829 3.51462L185.657 3.51462L185.657 6.34305Z" fill="#ACACAC"/>
<path d="M182.828 3.51468L181.414 2.10046L182.828 0.68625L182.828 3.51468Z" fill="#ACACAC"/>
<path d="M188.486 9.17154L189.9 10.5858L191.314 9.17154L188.486 9.17154Z" fill="#ACACAC"/>
<path fill-rule="evenodd" clip-rule="evenodd" d="M179.293 4.2218L170.101 13.4142L178.586 21.8995L187.778 12.7071L187.071 12L187.778 11.2929L188.485 12L189.9 10.5858L181.414 2.10048L180 3.51469L180.707 4.2218L180 4.9289L179.293 4.2218ZM181.414 6.34312L182.829 7.75733L183.536 7.05022L182.121 5.63601L181.414 6.34312ZM184.243 9.17154L185.657 10.5858L186.364 9.87865L184.95 8.46444L184.243 9.17154Z" fill="#ACACAC"/>
</svg>
