<svg width="307" height="222" viewBox="0 0 307 222" fill="none" xmlns="http://www.w3.org/2000/svg">
<path d="M37.104 18C36.8053 18 36.576 17.872 36.416 17.616C36.256 17.36 36.24 17.088 36.368 16.8L40.864 6.064C41.024 5.69067 41.2853 5.504 41.648 5.504C42.032 5.504 42.2933 5.69067 42.432 6.064L46.944 16.832C47.0613 17.1307 47.04 17.4027 46.88 17.648C46.7307 17.8827 46.5013 18 46.192 18C46.032 18 45.8773 17.9573 45.728 17.872C45.5893 17.776 45.488 17.648 45.424 17.488L41.456 7.632H41.904L37.872 17.488C37.7973 17.6587 37.6853 17.7867 37.536 17.872C37.3973 17.9573 37.2533 18 37.104 18ZM37.952 15.248L38.592 13.872H44.864L45.504 15.248H37.952ZM53.9615 18.16C53.0975 18.16 52.2868 18 51.5295 17.68C50.7828 17.3493 50.1268 16.896 49.5615 16.32C49.0068 15.7333 48.5695 15.0507 48.2495 14.272C47.9402 13.4933 47.7855 12.6507 47.7855 11.744C47.7855 10.848 47.9402 10.016 48.2495 9.248C48.5695 8.46933 49.0068 7.792 49.5615 7.216C50.1268 6.62933 50.7828 6.17067 51.5295 5.84C52.2762 5.50933 53.0868 5.344 53.9615 5.344C54.7828 5.344 55.4868 5.45067 56.0735 5.664C56.6708 5.87733 57.2682 6.22933 57.8655 6.72C57.9508 6.784 58.0148 6.85333 58.0575 6.928C58.1108 6.992 58.1428 7.06133 58.1535 7.136C58.1748 7.2 58.1855 7.28 58.1855 7.376C58.1855 7.57867 58.1108 7.74933 57.9615 7.888C57.8228 8.016 57.6522 8.09067 57.4495 8.112C57.2468 8.12267 57.0495 8.05333 56.8575 7.904C56.4628 7.56267 56.0522 7.30133 55.6255 7.12C55.2095 6.93867 54.6548 6.848 53.9615 6.848C53.3322 6.848 52.7402 6.976 52.1855 7.232C51.6308 7.488 51.1402 7.84 50.7135 8.288C50.2975 8.736 49.9722 9.25867 49.7375 9.856C49.5028 10.4427 49.3855 11.072 49.3855 11.744C49.3855 12.4267 49.5028 13.0667 49.7375 13.664C49.9722 14.2507 50.2975 14.768 50.7135 15.216C51.1402 15.664 51.6308 16.016 52.1855 16.272C52.7402 16.5173 53.3322 16.64 53.9615 16.64C54.5055 16.64 55.0175 16.5493 55.4975 16.368C55.9882 16.176 56.4575 15.9147 56.9055 15.584C57.0975 15.4453 57.2842 15.3867 57.4655 15.408C57.6575 15.4187 57.8175 15.4933 57.9455 15.632C58.0735 15.76 58.1375 15.9413 58.1375 16.176C58.1375 16.2827 58.1162 16.3893 58.0735 16.496C58.0308 16.592 57.9668 16.6827 57.8815 16.768C57.3055 17.2267 56.6868 17.5733 56.0255 17.808C55.3748 18.0427 54.6868 18.16 53.9615 18.16ZM66.223 18.16C65.359 18.16 64.5483 18 63.791 17.68C63.0443 17.3493 62.3883 16.896 61.823 16.32C61.2683 15.7333 60.831 15.0507 60.511 14.272C60.2017 13.4933 60.047 12.6507 60.047 11.744C60.047 10.848 60.2017 10.016 60.511 9.248C60.831 8.46933 61.2683 7.792 61.823 7.216C62.3883 6.62933 63.0443 6.17067 63.791 5.84C64.5377 5.50933 65.3483 5.344 66.223 5.344C67.0443 5.344 67.7483 5.45067 68.335 5.664C68.9323 5.87733 69.5297 6.22933 70.127 6.72C70.2123 6.784 70.2763 6.85333 70.319 6.928C70.3723 6.992 70.4043 7.06133 70.415 7.136C70.4363 7.2 70.447 7.28 70.447 7.376C70.447 7.57867 70.3723 7.74933 70.223 7.888C70.0843 8.016 69.9137 8.09067 69.711 8.112C69.5083 8.12267 69.311 8.05333 69.119 7.904C68.7243 7.56267 68.3137 7.30133 67.887 7.12C67.471 6.93867 66.9163 6.848 66.223 6.848C65.5937 6.848 65.0017 6.976 64.447 7.232C63.8923 7.488 63.4017 7.84 62.975 8.288C62.559 8.736 62.2337 9.25867 61.999 9.856C61.7643 10.4427 61.647 11.072 61.647 11.744C61.647 12.4267 61.7643 13.0667 61.999 13.664C62.2337 14.2507 62.559 14.768 62.975 15.216C63.4017 15.664 63.8923 16.016 64.447 16.272C65.0017 16.5173 65.5937 16.64 66.223 16.64C66.767 16.64 67.279 16.5493 67.759 16.368C68.2497 16.176 68.719 15.9147 69.167 15.584C69.359 15.4453 69.5457 15.3867 69.727 15.408C69.919 15.4187 70.079 15.4933 70.207 15.632C70.335 15.76 70.399 15.9413 70.399 16.176C70.399 16.2827 70.3777 16.3893 70.335 16.496C70.2923 16.592 70.2283 16.6827 70.143 16.768C69.567 17.2267 68.9483 17.5733 68.287 17.808C67.6363 18.0427 66.9483 18.16 66.223 18.16ZM73.7165 18C73.4818 18 73.2845 17.92 73.1245 17.76C72.9645 17.6 72.8845 17.4027 72.8845 17.168V6.336C72.8845 6.09067 72.9645 5.89333 73.1245 5.744C73.2845 5.584 73.4818 5.504 73.7165 5.504H80.9485C81.1938 5.504 81.3912 5.57867 81.5405 5.728C81.6898 5.86667 81.7645 6.05333 81.7645 6.288C81.7645 6.512 81.6898 6.69333 81.5405 6.832C81.3912 6.97067 81.1938 7.04 80.9485 7.04H74.5485V10.928H79.1405C79.3858 10.928 79.5832 11.0027 79.7325 11.152C79.8818 11.2907 79.9565 11.472 79.9565 11.696C79.9565 11.92 79.8818 12.1067 79.7325 12.256C79.5832 12.3947 79.3858 12.464 79.1405 12.464H74.5485V16.464H80.9485C81.1938 16.464 81.3912 16.5333 81.5405 16.672C81.6898 16.8107 81.7645 16.992 81.7645 17.216C81.7645 17.4507 81.6898 17.6427 81.5405 17.792C81.3912 17.9307 81.1938 18 80.9485 18H73.7165ZM87.8796 18.16C87.197 18.16 86.5463 18.0533 85.9276 17.84C85.309 17.6267 84.7703 17.328 84.3116 16.944C83.853 16.56 83.517 16.1173 83.3036 15.616C83.197 15.392 83.197 15.184 83.3036 14.992C83.421 14.8 83.613 14.6773 83.8796 14.624C84.0716 14.5813 84.2583 14.6133 84.4396 14.72C84.6316 14.816 84.7756 14.9653 84.8716 15.168C84.9996 15.4347 85.2076 15.68 85.4956 15.904C85.7943 16.128 86.1516 16.3093 86.5676 16.448C86.9836 16.5867 87.421 16.656 87.8796 16.656C88.3916 16.656 88.861 16.576 89.2876 16.416C89.725 16.256 90.077 16.0267 90.3436 15.728C90.6103 15.4187 90.7436 15.04 90.7436 14.592C90.7436 14.0267 90.5196 13.52 90.0716 13.072C89.6343 12.624 88.909 12.3467 87.8956 12.24C86.573 12.112 85.533 11.7227 84.7756 11.072C84.0183 10.4213 83.6396 9.616 83.6396 8.656C83.6396 7.952 83.837 7.35467 84.2316 6.864C84.6263 6.37333 85.1596 6 85.8316 5.744C86.5143 5.488 87.2716 5.36 88.1036 5.36C88.7543 5.36 89.3196 5.45067 89.7996 5.632C90.2903 5.81333 90.717 6.064 91.0796 6.384C91.4423 6.704 91.757 7.08267 92.0236 7.52C92.173 7.75467 92.2316 7.97867 92.1996 8.192C92.1783 8.39467 92.077 8.55467 91.8956 8.672C91.693 8.8 91.4743 8.82667 91.2396 8.752C91.005 8.67733 90.829 8.53867 90.7116 8.336C90.541 8.02667 90.333 7.76533 90.0876 7.552C89.8423 7.33867 89.5543 7.17333 89.2236 7.056C88.893 6.928 88.5036 6.864 88.0556 6.864C87.2663 6.85333 86.605 7.00267 86.0716 7.312C85.5383 7.61067 85.2716 8.07467 85.2716 8.704C85.2716 9.024 85.3516 9.33333 85.5116 9.632C85.6823 9.92 85.9863 10.1707 86.4236 10.384C86.8716 10.5973 87.5116 10.7467 88.3436 10.832C89.613 10.96 90.5996 11.3493 91.3036 12C92.0183 12.64 92.3756 13.488 92.3756 14.544C92.3756 15.152 92.2476 15.68 91.9916 16.128C91.7463 16.576 91.4103 16.9547 90.9836 17.264C90.5676 17.5627 90.0876 17.7867 89.5436 17.936C89.0103 18.0853 88.4556 18.16 87.8796 18.16ZM98.7192 18.16C98.0366 18.16 97.3859 18.0533 96.7672 17.84C96.1486 17.6267 95.6099 17.328 95.1512 16.944C94.6926 16.56 94.3566 16.1173 94.1432 15.616C94.0366 15.392 94.0366 15.184 94.1432 14.992C94.2606 14.8 94.4526 14.6773 94.7192 14.624C94.9112 14.5813 95.0979 14.6133 95.2792 14.72C95.4712 14.816 95.6152 14.9653 95.7112 15.168C95.8392 15.4347 96.0472 15.68 96.3352 15.904C96.6339 16.128 96.9912 16.3093 97.4072 16.448C97.8232 16.5867 98.2606 16.656 98.7192 16.656C99.2312 16.656 99.7006 16.576 100.127 16.416C100.565 16.256 100.917 16.0267 101.183 15.728C101.45 15.4187 101.583 15.04 101.583 14.592C101.583 14.0267 101.359 13.52 100.911 13.072C100.474 12.624 99.7486 12.3467 98.7352 12.24C97.4126 12.112 96.3726 11.7227 95.6152 11.072C94.8579 10.4213 94.4792 9.616 94.4792 8.656C94.4792 7.952 94.6766 7.35467 95.0712 6.864C95.4659 6.37333 95.9992 6 96.6712 5.744C97.3539 5.488 98.1112 5.36 98.9432 5.36C99.5939 5.36 100.159 5.45067 100.639 5.632C101.13 5.81333 101.557 6.064 101.919 6.384C102.282 6.704 102.597 7.08267 102.863 7.52C103.013 7.75467 103.071 7.97867 103.039 8.192C103.018 8.39467 102.917 8.55467 102.735 8.672C102.533 8.8 102.314 8.82667 102.079 8.752C101.845 8.67733 101.669 8.53867 101.551 8.336C101.381 8.02667 101.173 7.76533 100.927 7.552C100.682 7.33867 100.394 7.17333 100.063 7.056C99.7326 6.928 99.3432 6.864 98.8952 6.864C98.1059 6.85333 97.4446 7.00267 96.9112 7.312C96.3779 7.61067 96.1112 8.07467 96.1112 8.704C96.1112 9.024 96.1912 9.33333 96.3512 9.632C96.5219 9.92 96.8259 10.1707 97.2632 10.384C97.7112 10.5973 98.3512 10.7467 99.1832 10.832C100.453 10.96 101.439 11.3493 102.143 12C102.858 12.64 103.215 13.488 103.215 14.544C103.215 15.152 103.087 15.68 102.831 16.128C102.586 16.576 102.25 16.9547 101.823 17.264C101.407 17.5627 100.927 17.7867 100.383 17.936C99.8499 18.0853 99.2952 18.16 98.7192 18.16ZM110.934 18C110.7 18 110.502 17.92 110.342 17.76C110.182 17.6 110.102 17.4027 110.102 17.168V6.336C110.102 6.09067 110.182 5.89333 110.342 5.744C110.502 5.584 110.7 5.504 110.934 5.504C111.18 5.504 111.377 5.584 111.526 5.744C111.686 5.89333 111.766 6.09067 111.766 6.336V10.928H119.19V6.336C119.19 6.09067 119.27 5.89333 119.43 5.744C119.59 5.584 119.788 5.504 120.022 5.504C120.268 5.504 120.465 5.584 120.614 5.744C120.764 5.89333 120.838 6.09067 120.838 6.336V17.168C120.838 17.4027 120.764 17.6 120.614 17.76C120.465 17.92 120.268 18 120.022 18C119.788 18 119.59 17.92 119.43 17.76C119.27 17.6 119.19 17.4027 119.19 17.168V12.4H111.766V17.168C111.766 17.4027 111.686 17.6 111.526 17.76C111.377 17.92 111.18 18 110.934 18ZM124.696 18C124.461 18 124.264 17.92 124.104 17.76C123.944 17.6 123.864 17.4027 123.864 17.168V6.336C123.864 6.09067 123.944 5.89333 124.104 5.744C124.264 5.584 124.461 5.504 124.696 5.504H131.928C132.173 5.504 132.371 5.57867 132.52 5.728C132.669 5.86667 132.744 6.05333 132.744 6.288C132.744 6.512 132.669 6.69333 132.52 6.832C132.371 6.97067 132.173 7.04 131.928 7.04H125.528V10.928H130.12C130.365 10.928 130.563 11.0027 130.712 11.152C130.861 11.2907 130.936 11.472 130.936 11.696C130.936 11.92 130.861 12.1067 130.712 12.256C130.563 12.3947 130.365 12.464 130.12 12.464H125.528V16.464H131.928C132.173 16.464 132.371 16.5333 132.52 16.672C132.669 16.8107 132.744 16.992 132.744 17.216C132.744 17.4507 132.669 17.6427 132.52 17.792C132.371 17.9307 132.173 18 131.928 18H124.696ZM135.707 18C135.472 18 135.275 17.92 135.115 17.76C134.966 17.6 134.891 17.4027 134.891 17.168V6.336C134.891 6.10133 134.971 5.904 135.131 5.744C135.291 5.584 135.483 5.504 135.707 5.504C135.942 5.504 136.139 5.584 136.299 5.744C136.459 5.904 136.539 6.10133 136.539 6.336V16.336H142.331C142.566 16.336 142.763 16.416 142.923 16.576C143.083 16.736 143.163 16.9333 143.163 17.168C143.163 17.4027 143.083 17.6 142.923 17.76C142.763 17.92 142.566 18 142.331 18H135.707ZM145.813 18C145.578 18 145.381 17.92 145.221 17.76C145.061 17.6 144.981 17.4027 144.981 17.168V6.336C144.981 6.09067 145.061 5.89333 145.221 5.744C145.381 5.584 145.578 5.504 145.813 5.504H149.013C149.813 5.504 150.522 5.68 151.141 6.032C151.759 6.384 152.239 6.87467 152.581 7.504C152.933 8.12267 153.109 8.83733 153.109 9.648C153.109 10.4267 152.933 11.12 152.581 11.728C152.239 12.336 151.759 12.8107 151.141 13.152C150.522 13.4933 149.813 13.664 149.013 13.664H146.645V17.168C146.645 17.4027 146.565 17.6 146.405 17.76C146.255 17.92 146.058 18 145.813 18ZM146.645 12.128H149.013C149.503 12.128 149.935 12.0213 150.309 11.808C150.682 11.5947 150.975 11.3013 151.189 10.928C151.402 10.5547 151.509 10.128 151.509 9.648C151.509 9.136 151.402 8.688 151.189 8.304C150.975 7.90933 150.682 7.6 150.309 7.376C149.935 7.152 149.503 7.04 149.013 7.04H146.645V12.128Z" fill="white"/>
<path d="M38.2967 63.9653L38.684 63.0433L38.2967 63.9653ZM267.336 119.255L266.698 120.025L267.336 119.255ZM277.195 166.819C276.743 167.136 276.12 167.026 275.803 166.574L270.638 159.203C270.321 158.751 270.43 158.128 270.883 157.811C271.335 157.494 271.959 157.603 272.276 158.056L276.867 164.607L283.418 160.016C283.87 159.699 284.494 159.809 284.811 160.261C285.128 160.713 285.018 161.337 284.566 161.654L277.195 166.819ZM26.0489 13C19.8415 13 14.023 14.6949 9.66908 17.562C5.31673 20.428 2.48674 24.4172 2.05733 29.028C1.62823 33.6355 3.57445 39.1037 9.27684 44.9704C14.9837 50.8416 24.3918 57.0408 38.684 63.0433L37.9095 64.8873C23.4789 58.8266 13.805 52.4985 7.84269 46.3644C1.87597 40.2257 -0.433976 34.2105 0.0659509 28.8425C0.565578 23.4777 3.84981 18.9993 8.56913 15.8916C13.2868 12.785 19.4975 11 26.0489 11V13ZM38.684 63.0433C74.4217 78.0527 119.081 81.5689 161.239 86.4834C182.281 88.9363 202.687 91.7396 220.951 96.5164C239.213 101.293 255.404 108.06 267.975 118.485L266.698 120.025C254.441 109.86 238.563 103.19 220.445 98.4513C202.328 93.7128 182.042 90.9221 161.007 88.4699C119.011 83.5742 73.9787 80.0359 37.9095 64.8873L38.684 63.0433ZM267.975 118.485C289.286 136.16 278.159 163.035 277.606 166.173L275.637 165.827C276.323 161.928 286.872 136.756 266.698 120.025L267.975 118.485Z" fill="white"/>
<path d="M275 175C273.957 175.001 272.957 175.416 272.22 176.154C271.482 176.891 271.067 177.891 271.066 178.934H273.066C273.066 177.867 273.934 177 275 177C276.066 177 276.934 177.867 276.934 178.934C276.934 179.532 276.453 179.966 275.718 180.56C275.478 180.748 275.247 180.948 275.027 181.159C274.029 182.156 274 183.215 274 183.333V184H276L275.999 183.367C276 183.351 276.032 182.981 276.44 182.574C276.59 182.424 276.779 182.274 276.975 182.116C277.754 181.485 278.933 180.532 278.933 178.934C278.932 177.891 278.518 176.891 277.78 176.153C277.043 175.416 276.043 175.001 275 175ZM274 185H276V187H274V185Z" fill="white"/>
<path d="M275 171C269.486 171 265 175.486 265 181C265 186.514 269.486 191 275 191C280.514 191 285 186.514 285 181C285 175.486 280.514 171 275 171ZM275 189C270.589 189 267 185.411 267 181C267 176.589 270.589 173 275 173C279.411 173 283 176.589 283 181C283 185.411 279.411 189 275 189Z" fill="white"/>
<path d="M261.824 212C261.648 212 261.5 211.94 261.38 211.82C261.26 211.7 261.2 211.552 261.2 211.376V203.252C261.2 203.068 261.26 202.92 261.38 202.808C261.5 202.688 261.648 202.628 261.824 202.628C262.008 202.628 262.156 202.688 262.268 202.808C262.388 202.92 262.448 203.068 262.448 203.252V206.696H268.016V203.252C268.016 203.068 268.076 202.92 268.196 202.808C268.316 202.688 268.464 202.628 268.64 202.628C268.824 202.628 268.972 202.688 269.084 202.808C269.196 202.92 269.252 203.068 269.252 203.252V211.376C269.252 211.552 269.196 211.7 269.084 211.82C268.972 211.94 268.824 212 268.64 212C268.464 212 268.316 211.94 268.196 211.82C268.076 211.7 268.016 211.552 268.016 211.376V207.8H262.448V211.376C262.448 211.552 262.388 211.7 262.268 211.82C262.156 211.94 262.008 212 261.824 212ZM274.485 212.048C273.821 212.048 273.229 211.908 272.709 211.628C272.197 211.34 271.793 210.948 271.497 210.452C271.209 209.948 271.065 209.372 271.065 208.724C271.065 208.068 271.201 207.492 271.473 206.996C271.753 206.492 272.137 206.1 272.625 205.82C273.113 205.532 273.673 205.388 274.305 205.388C274.929 205.388 275.465 205.528 275.913 205.808C276.361 206.08 276.701 206.46 276.933 206.948C277.173 207.428 277.293 207.984 277.293 208.616C277.293 208.768 277.241 208.896 277.137 209C277.033 209.096 276.901 209.144 276.741 209.144H271.905V208.184H276.705L276.213 208.52C276.205 208.12 276.125 207.764 275.973 207.452C275.821 207.132 275.605 206.88 275.325 206.696C275.045 206.512 274.705 206.42 274.305 206.42C273.849 206.42 273.457 206.52 273.129 206.72C272.809 206.92 272.565 207.196 272.397 207.548C272.229 207.892 272.145 208.284 272.145 208.724C272.145 209.164 272.245 209.556 272.445 209.9C272.645 210.244 272.921 210.516 273.273 210.716C273.625 210.916 274.029 211.016 274.485 211.016C274.733 211.016 274.985 210.972 275.241 210.884C275.505 210.788 275.717 210.68 275.877 210.56C275.997 210.472 276.125 210.428 276.261 210.428C276.405 210.42 276.529 210.46 276.633 210.548C276.769 210.668 276.841 210.8 276.849 210.944C276.857 211.088 276.793 211.212 276.657 211.316C276.385 211.532 276.045 211.708 275.637 211.844C275.237 211.98 274.853 212.048 274.485 212.048ZM280.282 212C279.93 212 279.618 211.904 279.346 211.712C279.074 211.52 278.862 211.26 278.71 210.932C278.558 210.596 278.482 210.212 278.482 209.78V203.228C278.482 203.052 278.538 202.908 278.65 202.796C278.762 202.684 278.906 202.628 279.082 202.628C279.258 202.628 279.402 202.684 279.514 202.796C279.626 202.908 279.682 203.052 279.682 203.228V209.78C279.682 210.076 279.738 210.32 279.85 210.512C279.962 210.704 280.106 210.8 280.282 210.8H280.582C280.742 210.8 280.87 210.856 280.966 210.968C281.07 211.08 281.122 211.224 281.122 211.4C281.122 211.576 281.046 211.72 280.894 211.832C280.742 211.944 280.546 212 280.306 212H280.282ZM282.8 214.808C282.624 214.808 282.476 214.748 282.356 214.628C282.244 214.516 282.188 214.372 282.188 214.196V208.724C282.196 208.092 282.344 207.524 282.632 207.02C282.92 206.516 283.312 206.12 283.808 205.832C284.304 205.536 284.864 205.388 285.488 205.388C286.12 205.388 286.684 205.536 287.18 205.832C287.676 206.12 288.068 206.516 288.356 207.02C288.652 207.524 288.8 208.092 288.8 208.724C288.8 209.356 288.664 209.924 288.392 210.428C288.128 210.924 287.764 211.32 287.3 211.616C286.836 211.904 286.312 212.048 285.728 212.048C285.256 212.048 284.82 211.952 284.42 211.76C284.028 211.56 283.692 211.292 283.412 210.956V214.196C283.412 214.372 283.356 214.516 283.244 214.628C283.132 214.748 282.984 214.808 282.8 214.808ZM285.488 210.968C285.896 210.968 286.26 210.872 286.58 210.68C286.9 210.48 287.152 210.212 287.336 209.876C287.528 209.532 287.624 209.148 287.624 208.724C287.624 208.292 287.528 207.908 287.336 207.572C287.152 207.228 286.9 206.96 286.58 206.768C286.26 206.568 285.896 206.468 285.488 206.468C285.088 206.468 284.724 206.568 284.396 206.768C284.076 206.96 283.824 207.228 283.64 207.572C283.456 207.908 283.364 208.292 283.364 208.724C283.364 209.148 283.456 209.532 283.64 209.876C283.824 210.212 284.076 210.48 284.396 210.68C284.724 210.872 285.088 210.968 285.488 210.968Z" fill="white"/>
</svg>
