<svg width="283" height="70" viewBox="0 0 283 70" fill="none" xmlns="http://www.w3.org/2000/svg">
<path d="M267.727 19.0233H265.075V17.4648H272.3V19.0233H269.648V25.7612H267.727V19.0233Z" fill="#0672BA"/>
<path d="M281.125 25.807V20.8109L278.702 24.9361H277.833L275.409 20.9484V25.8529H273.626V17.4648H275.226L278.336 22.6443L281.399 17.4648H282.954L283 25.807H281.125Z" fill="#0672BA"/>
<path d="M87.0611 45.745H61.9572C62.8717 50.4203 66.7585 53.4455 72.3371 53.4455C75.9495 53.4455 78.7388 52.2996 81.0252 49.9619L85.0491 54.5914C82.1683 58.0291 77.6871 59.8167 72.1542 59.8167C61.4085 59.8167 54.458 52.8954 54.458 43.3615C54.458 33.8276 61.4542 26.9521 71.011 26.9521C80.385 26.9521 87.1982 33.5067 87.1982 43.5449C87.1982 44.0949 87.1068 45.0116 87.0611 45.745ZM61.8657 40.7489H80.0192C79.4247 36.1194 75.858 32.9567 70.9653 32.9567C66.1183 32.9109 62.5973 36.0736 61.8657 40.7489Z" fill="#91C6DF"/>
<path d="M125.612 14.7617V59.3604H118.433V55.2351C115.918 58.3061 112.214 59.8187 107.824 59.8187C98.5414 59.8187 91.6367 53.31 91.6367 43.3635C91.6367 33.3712 98.5414 26.9542 107.824 26.9542C111.985 26.9542 115.597 28.3292 118.158 31.2628V14.7617H125.612ZM118.25 43.3177C118.25 37.1756 114.088 33.2796 108.693 33.2796C103.297 33.2796 99.1359 37.1756 99.1359 43.3177C99.1359 49.4597 103.297 53.3558 108.693 53.3558C114.088 53.3558 118.25 49.4597 118.25 43.3177Z" fill="#91C6DF"/>
<path d="M132.512 54.912L135.21 48.8617C138.548 51.566 143.898 53.4911 149.065 53.4911C155.604 53.4911 158.347 51.1535 158.347 48.0366C158.347 38.961 133.381 44.9197 133.381 29.2896C133.381 22.5058 138.776 16.7305 150.299 16.7305C155.329 16.7305 160.634 18.0597 164.292 20.4432L161.868 26.4936C158.073 24.2476 153.958 23.1934 150.299 23.1934C143.806 23.1934 141.2 25.7144 141.2 28.9229C141.2 37.861 166.075 32.0398 166.075 47.4866C166.075 54.2245 160.634 59.9998 149.11 59.9998C142.526 59.9998 135.987 57.9372 132.512 54.912Z" fill="#0672BA"/>
<path d="M203.531 27.2715V59.3568H196.398V55.2774C194.02 58.2109 190.224 59.7694 186.063 59.7694C177.833 59.7694 172.254 55.2774 172.254 45.606V27.2715H179.753V44.5976C179.753 50.4188 182.497 53.1689 187.252 53.1689C192.465 53.1689 195.986 49.9146 195.986 43.4975V27.2715H203.531Z" fill="#0672BA"/>
<path d="M231.01 26.9092V34.0596C230.369 33.9221 229.821 33.8763 229.272 33.8763C223.556 33.8763 219.989 37.2223 219.989 43.7769V59.3612H212.49V27.2759H219.624V31.9512C221.773 28.6051 225.66 26.9092 231.01 26.9092Z" fill="#0672BA"/>
<path d="M266.679 45.745H241.575C242.49 50.4203 246.377 53.4455 251.955 53.4455C255.568 53.4455 258.357 52.2996 260.643 49.9619L264.667 54.5914C261.786 58.0291 257.305 59.8167 251.772 59.8167C241.027 59.8167 234.076 52.8954 234.076 43.3615C234.076 33.8276 241.072 26.9521 250.629 26.9521C260.003 26.9521 266.816 33.5067 266.816 43.5449C266.816 44.0949 266.725 45.0116 266.679 45.745ZM241.484 40.7489H259.637C259.043 36.1194 255.476 32.9567 250.583 32.9567C245.736 32.9109 242.215 36.0736 241.484 40.7489Z" fill="#0672BA"/>
<path d="M45.9097 59.3607H38.5477L38.502 31.584L45.8639 18.6123L45.9097 59.3607Z" fill="#91C6DF"/>
<path d="M7.45343 33.4136V59.3569H0V20.8545L7.45343 33.4136Z" fill="#91C6DF"/>
<path d="M23.1377 41.6193L0 17.2344L22.7718 55.7827L54.4604 0L23.1377 41.6193Z" fill="#0672BA"/>
</svg>
